<svg width="13" height="14" viewBox="0 0 13 14" fill="none" xmlns="http://www.w3.org/2000/svg">
<rect y="1" width="13" height="13" fill="white"/>
<path d="M6.55181 12.072C5.4798 12.072 4.6358 11.764 4.0198 11.148C3.4038 10.532 3.0958 9.62 3.0958 8.412V3.6H3.9838V8.376C3.9838 9.368 4.2078 10.1 4.6558 10.572C5.1038 11.044 5.7358 11.28 6.55181 11.28C7.3758 11.28 8.0118 11.044 8.4598 10.572C8.9078 10.1 9.1318 9.368 9.1318 8.376V3.6H9.99581V8.412C9.99581 9.62 9.6878 10.532 9.0718 11.148C8.4638 11.764 7.62381 12.072 6.55181 12.072Z" fill="#7AEF51"/>
<path d="M9.456 12.048C9.04 12.048 8.64 11.9813 8.256 11.848C7.87733 11.7093 7.584 11.5333 7.376 11.32L7.608 10.864C7.80533 11.056 8.06933 11.2187 8.4 11.352C8.736 11.48 9.088 11.544 9.456 11.544C9.808 11.544 10.0933 11.5013 10.312 11.416C10.536 11.3253 10.6987 11.2053 10.8 11.056C10.9067 10.9067 10.96 10.7413 10.96 10.56C10.96 10.3413 10.896 10.1653 10.768 10.032C10.6453 9.89867 10.4827 9.79467 10.28 9.72C10.0773 9.64 9.85333 9.57067 9.608 9.512C9.36267 9.45333 9.11733 9.392 8.872 9.328C8.62667 9.25867 8.4 9.168 8.192 9.056C7.98933 8.944 7.824 8.79733 7.696 8.616C7.57333 8.42933 7.512 8.18667 7.512 7.888C7.512 7.61067 7.584 7.35733 7.728 7.128C7.87733 6.89333 8.104 6.70667 8.408 6.568C8.712 6.424 9.10133 6.352 9.576 6.352C9.89067 6.352 10.2027 6.39733 10.512 6.488C10.8213 6.57333 11.088 6.69333 11.312 6.848L11.112 7.32C10.872 7.16 10.616 7.04267 10.344 6.968C10.0773 6.89333 9.81867 6.856 9.568 6.856C9.232 6.856 8.95467 6.90133 8.736 6.992C8.51733 7.08267 8.35467 7.20533 8.248 7.36C8.14667 7.50933 8.096 7.68 8.096 7.872C8.096 8.09067 8.15733 8.26667 8.28 8.4C8.408 8.53333 8.57333 8.63733 8.776 8.712C8.984 8.78667 9.21067 8.85333 9.456 8.912C9.70133 8.97067 9.944 9.03467 10.184 9.104C10.4293 9.17333 10.6533 9.264 10.856 9.376C11.064 9.48267 11.2293 9.62667 11.352 9.808C11.48 9.98933 11.544 10.2267 11.544 10.52C11.544 10.792 11.4693 11.0453 11.32 11.28C11.1707 11.5093 10.9413 11.696 10.632 11.84C10.328 11.9787 9.936 12.048 9.456 12.048Z" fill="#535353"/>
</svg>
