<svg width="50" height="10" viewBox="0 0 50 10" fill="none" xmlns="http://www.w3.org/2000/svg">
<path d="M3.752 9.072C2.68 9.072 1.836 8.764 1.22 8.148C0.604 7.532 0.296 6.62 0.296 5.412V0.599999H1.184V5.376C1.184 6.368 1.408 7.1 1.856 7.572C2.304 8.044 2.936 8.28 3.752 8.28C4.576 8.28 5.212 8.044 5.66 7.572C6.108 7.1 6.332 6.368 6.332 5.376V0.599999H7.196V5.412C7.196 6.62 6.888 7.532 6.272 8.148C5.664 8.764 4.824 9.072 3.752 9.072Z" fill="#7AEF51"/>
<path d="M12.1879 9.072C11.5639 9.072 10.9639 8.972 10.3879 8.772C9.81991 8.564 9.37991 8.3 9.06791 7.98L9.41591 7.296C9.71191 7.584 10.1079 7.828 10.6039 8.028C11.1079 8.22 11.6359 8.316 12.1879 8.316C12.7159 8.316 13.1439 8.252 13.4719 8.124C13.8079 7.988 14.0519 7.808 14.2039 7.584C14.3639 7.36 14.4439 7.112 14.4439 6.84C14.4439 6.512 14.3479 6.248 14.1559 6.048C13.9719 5.848 13.7279 5.692 13.4239 5.58C13.1199 5.46 12.7839 5.356 12.4159 5.268C12.0479 5.18 11.6799 5.088 11.3119 4.992C10.9439 4.888 10.6039 4.752 10.2919 4.584C9.98791 4.416 9.73991 4.196 9.54791 3.924C9.36391 3.644 9.27191 3.28 9.27191 2.832C9.27191 2.416 9.37991 2.036 9.59591 1.692C9.81991 1.34 10.1599 1.06 10.6159 0.852C11.0719 0.636 11.6559 0.528 12.3679 0.528C12.8399 0.528 13.3079 0.596 13.7719 0.732C14.2359 0.86 14.6359 1.04 14.9719 1.272L14.6719 1.98C14.3119 1.74 13.9279 1.564 13.5199 1.452C13.1199 1.34 12.7319 1.284 12.3559 1.284C11.8519 1.284 11.4359 1.352 11.1079 1.488C10.7799 1.624 10.5359 1.808 10.3759 2.04C10.2239 2.264 10.1479 2.52 10.1479 2.808C10.1479 3.136 10.2399 3.4 10.4239 3.6C10.6159 3.8 10.8639 3.956 11.1679 4.068C11.4799 4.18 11.8199 4.28 12.1879 4.368C12.5559 4.456 12.9199 4.552 13.2799 4.656C13.6479 4.76 13.9839 4.896 14.2879 5.064C14.5999 5.224 14.8479 5.44 15.0319 5.712C15.2239 5.984 15.3199 6.34 15.3199 6.78C15.3199 7.188 15.2079 7.568 14.9839 7.92C14.7599 8.264 14.4159 8.544 13.9519 8.76C13.4959 8.968 12.9079 9.072 12.1879 9.072ZM18.7695 9V1.368H15.8175V0.599999H22.6095V1.368H19.6575V9H18.7695ZM27.2481 9.072C26.1761 9.072 25.3321 8.764 24.7161 8.148C24.1001 7.532 23.7921 6.62 23.7921 5.412V0.599999H24.6801V5.376C24.6801 6.368 24.9041 7.1 25.3521 7.572C25.8001 8.044 26.4321 8.28 27.2481 8.28C28.0721 8.28 28.7081 8.044 29.1561 7.572C29.6041 7.1 29.8281 6.368 29.8281 5.376V0.599999H30.6921V5.412C30.6921 6.62 30.3841 7.532 29.7681 8.148C29.1601 8.764 28.3201 9.072 27.2481 9.072ZM33.368 9V0.599999H36.788C37.684 0.599999 38.468 0.779999 39.14 1.14C39.82 1.492 40.348 1.984 40.724 2.616C41.1 3.248 41.288 3.976 41.288 4.8C41.288 5.624 41.1 6.352 40.724 6.984C40.348 7.616 39.82 8.112 39.14 8.472C38.468 8.824 37.684 9 36.788 9H33.368ZM34.256 8.232H36.74C37.484 8.232 38.128 8.088 38.672 7.8C39.224 7.504 39.652 7.1 39.956 6.588C40.26 6.068 40.412 5.472 40.412 4.8C40.412 4.12 40.26 3.524 39.956 3.012C39.652 2.5 39.224 2.1 38.672 1.812C38.128 1.516 37.484 1.368 36.74 1.368H34.256V8.232ZM44.9228 9V5.88L45.1268 6.432L41.5628 0.599999H42.5108L45.6428 5.724H45.1388L48.2708 0.599999H49.1588L45.5948 6.432L45.7988 5.88V9H44.9228Z" fill="black"/>
</svg>
